solid OpenSCAD_Model
  facet normal -0.994108 -0.0939705 -0.0540191
    outer loop
      vertex 77.5237 -46.376 0
      vertex 77.5 -49 5
      vertex 77.5059 -46.1884 0
    endloop
  endfacet
  facet normal -0.999329 -0.0314061 -0.0188437
    outer loop
      vertex 77.5059 -46.1884 0
      vertex 77.5 -49 5
      vertex 77.5 -46 0
    endloop
  endfacet
  facet normal -1 0 0
    outer loop
      vertex 77.5 -49 5
      vertex 77.5 -49 45
      vertex 77.5 -46 0
    endloop
  endfacet
  facet normal -1 0 0
    outer loop
      vertex 77.5 -46 0
      vertex 77.5 -49 45
      vertex 77.5 49 45
    endloop
  endfacet
  facet normal -1 0 0
    outer loop
      vertex 77.5 -46 0
      vertex 77.5 49 45
      vertex 77.5 49 5
    endloop
  endfacet
  facet normal -1 0 0
    outer loop
      vertex 77.5 -46 0
      vertex 77.5 49 5
      vertex 77.5 46 0
    endloop
  endfacet
  facet normal 0 -1 0
    outer loop
      vertex 77.5 -49 45
      vertex 77.5 -49 5
      vertex 80.5 -49 0
    endloop
  endfacet
  facet normal 0 -1 0
    outer loop
      vertex 192.5 -49 5
      vertex 77.5 -49 45
      vertex 189.5 -49 0
    endloop
  endfacet
  facet normal 0 -1 0
    outer loop
      vertex 189.5 -49 0
      vertex 77.5 -49 45
      vertex 80.5 -49 0
    endloop
  endfacet
  facet normal 0 -1 0
    outer loop
      vertex 192.5 -49 45
      vertex 77.5 -49 45
      vertex 192.5 -49 5
    endloop
  endfacet
  facet normal -0.0314061 -0.999329 -0.0188437
    outer loop
      vertex 80.5 -49 0
      vertex 77.5 -49 5
      vertex 80.3116 -48.9941 0
    endloop
  endfacet
  facet normal -0.0939705 -0.994108 -0.0540191
    outer loop
      vertex 80.3116 -48.9941 0
      vertex 77.5 -49 5
      vertex 80.124 -48.9763 0
    endloop
  endfacet
  facet normal -0.155847 -0.983991 -0.0864441
    outer loop
      vertex 80.124 -48.9763 0
      vertex 77.5 -49 5
      vertex 79.9379 -48.9469 0
    endloop
  endfacet
  facet normal -0.216675 -0.969334 -0.115946
    outer loop
      vertex 79.9379 -48.9469 0
      vertex 77.5 -49 5
      vertex 79.7539 -48.9057 0
    endloop
  endfacet
  facet normal -0.276144 -0.950509 -0.142399
    outer loop
      vertex 79.7539 -48.9057 0
      vertex 77.5 -49 5
      vertex 79.5729 -48.8532 0
    endloop
  endfacet
  facet normal -0.334056 -0.927866 -0.165744
    outer loop
      vertex 79.5729 -48.8532 0
      vertex 77.5 -49 5
      vertex 79.3956 -48.7893 0
    endloop
  endfacet
  facet normal -0.390221 -0.901751 -0.185937
    outer loop
      vertex 79.3956 -48.7893 0
      vertex 77.5 -49 5
      vertex 79.2227 -48.7145 0
    endloop
  endfacet
  facet normal -0.44454 -0.872459 -0.202979
    outer loop
      vertex 79.2227 -48.7145 0
      vertex 77.5 -49 5
      vertex 79.0547 -48.6289 0
    endloop
  endfacet
  facet normal -0.496925 -0.840255 -0.216878
    outer loop
      vertex 79.0547 -48.6289 0
      vertex 77.5 -49 5
      vertex 78.8925 -48.533 0
    endloop
  endfacet
  facet normal -0.547323 -0.805363 -0.227655
    outer loop
      vertex 78.8925 -48.533 0
      vertex 77.5 -49 5
      vertex 78.7366 -48.4271 0
    endloop
  endfacet
  facet normal -0.595693 -0.767964 -0.235333
    outer loop
      vertex 78.7366 -48.4271 0
      vertex 77.5 -49 5
      vertex 78.5877 -48.3115 0
    endloop
  endfacet
  facet normal -0.641996 -0.728199 -0.239931
    outer loop
      vertex 78.5877 -48.3115 0
      vertex 77.5 -49 5
      vertex 78.4464 -48.1869 0
    endloop
  endfacet
  facet normal -0.686184 -0.686184 -0.241462
    outer loop
      vertex 78.4464 -48.1869 0
      vertex 77.5 -49 5
      vertex 78.3131 -48.0536 0
    endloop
  endfacet
  facet normal -0.728199 -0.641996 -0.239931
    outer loop
      vertex 78.3131 -48.0536 0
      vertex 77.5 -49 5
      vertex 78.1885 -47.9123 0
    endloop
  endfacet
  facet normal -0.767964 -0.595693 -0.235333
    outer loop
      vertex 78.1885 -47.9123 0
      vertex 77.5 -49 5
      vertex 78.0729 -47.7634 0
    endloop
  endfacet
  facet normal -0.805363 -0.547323 -0.227655
    outer loop
      vertex 78.0729 -47.7634 0
      vertex 77.5 -49 5
      vertex 77.967 -47.6075 0
    endloop
  endfacet
  facet normal -0.840255 -0.496925 -0.216878
    outer loop
      vertex 77.967 -47.6075 0
      vertex 77.5 -49 5
      vertex 77.8711 -47.4453 0
    endloop
  endfacet
  facet normal -0.872459 -0.44454 -0.202979
    outer loop
      vertex 77.8711 -47.4453 0
      vertex 77.5 -49 5
      vertex 77.7855 -47.2773 0
    endloop
  endfacet
  facet normal -0.901751 -0.390221 -0.185937
    outer loop
      vertex 77.7855 -47.2773 0
      vertex 77.5 -49 5
      vertex 77.7107 -47.1044 0
    endloop
  endfacet
  facet normal -0.927866 -0.334056 -0.165744
    outer loop
      vertex 77.7107 -47.1044 0
      vertex 77.5 -49 5
      vertex 77.6468 -46.9271 0
    endloop
  endfacet
  facet normal -0.950509 -0.276144 -0.142399
    outer loop
      vertex 77.6468 -46.9271 0
      vertex 77.5 -49 5
      vertex 77.5943 -46.7461 0
    endloop
  endfacet
  facet normal -0.969334 -0.216675 -0.115946
    outer loop
      vertex 77.5943 -46.7461 0
      vertex 77.5 -49 5
      vertex 77.5531 -46.5621 0
    endloop
  endfacet
  facet normal -0.983991 -0.155847 -0.0864441
    outer loop
      vertex 77.5531 -46.5621 0
      vertex 77.5 -49 5
      vertex 77.5237 -46.376 0
    endloop
  endfacet
  facet normal 0 0 -1
    outer loop
      vertex 77.5 -46 0
      vertex 77.5 46 0
      vertex 77.5059 -46.1884 0
    endloop
  endfacet
  facet normal 0 0 -1
    outer loop
      vertex 77.5059 -46.1884 0
      vertex 77.5 46 0
      vertex 77.5059 46.1884 0
    endloop
  endfacet
  facet normal 0 0 -1
    outer loop
      vertex 77.5059 -46.1884 0
      vertex 77.5059 46.1884 0
      vertex 77.5237 46.376 0
    endloop
  endfacet
  facet normal 0 0 -1
    outer loop
      vertex 77.5059 -46.1884 0
      vertex 77.5237 46.376 0
      vertex 77.5531 46.5621 0
    endloop
  endfacet
  facet normal 0 0 -1
    outer loop
      vertex 77.5059 -46.1884 0
      vertex 77.5531 46.5621 0
      vertex 77.5943 46.7461 0
    endloop
  endfacet
  facet normal 0 0 -1
    outer loop
      vertex 77.5059 -46.1884 0
      vertex 77.5943 46.7461 0
      vertex 77.6468 46.9271 0
    endloop
  endfacet
  facet normal 0 0 -1
    outer loop
      vertex 77.5059 -46.1884 0
      vertex 77.6468 46.9271 0
      vertex 77.7107 47.1044 0
    endloop
  endfacet
  facet normal 0 0 -1
    outer loop
      vertex 77.5059 -46.1884 0
      vertex 77.7107 47.1044 0
      vertex 77.7855 47.2773 0
    endloop
  endfacet
  facet normal 0 0 -1
    outer loop
      vertex 77.5059 -46.1884 0
      vertex 77.7855 47.2773 0
      vertex 77.8711 47.4453 0
    endloop
  endfacet
  facet normal 0 0 -1
    outer loop
      vertex 77.5059 -46.1884 0
      vertex 77.8711 47.4453 0
      vertex 77.967 47.6075 0
    endloop
  endfacet
  facet normal 0 0 -1
    outer loop
      vertex 77.5059 -46.1884 0
      vertex 77.967 47.6075 0
      vertex 78.0729 47.7634 0
    endloop
  endfacet
  facet normal 0 0 -1
    outer loop
      vertex 77.5059 -46.1884 0
      vertex 78.0729 47.7634 0
      vertex 78.1885 47.9123 0
    endloop
  endfacet
  facet normal 0 0 -1
    outer loop
      vertex 77.5059 -46.1884 0
      vertex 78.1885 47.9123 0
      vertex 78.3131 48.0536 0
    endloop
  endfacet
  facet normal 0 0 -1
    outer loop
      vertex 77.5059 -46.1884 0
      vertex 78.3131 48.0536 0
      vertex 78.4464 48.1869 0
    endloop
  endfacet
  facet normal 0 0 -1
    outer loop
      vertex 77.5059 -46.1884 0
      vertex 78.4464 48.1869 0
      vertex 78.5877 48.3115 0
    endloop
  endfacet
  facet normal 0 0 -1
    outer loop
      vertex 77.5059 -46.1884 0
      vertex 78.5877 48.3115 0
      vertex 78.7366 48.4271 0
    endloop
  endfacet
  facet normal 0 0 -1
    outer loop
      vertex 77.5059 -46.1884 0
      vertex 78.7366 48.4271 0
      vertex 78.8925 48.533 0
    endloop
  endfacet
  facet normal 0 0 -1
    outer loop
      vertex 77.5059 -46.1884 0
      vertex 78.8925 48.533 0
      vertex 79.0547 48.6289 0
    endloop
  endfacet
  facet normal 0 0 -1
    outer loop
      vertex 77.5059 -46.1884 0
      vertex 79.0547 48.6289 0
      vertex 79.2227 48.7145 0
    endloop
  endfacet
  facet normal 0 0 -1
    outer loop
      vertex 77.5059 -46.1884 0
      vertex 79.2227 48.7145 0
      vertex 79.3956 48.7893 0
    endloop
  endfacet
  facet normal 0 0 -1
    outer loop
      vertex 77.5059 -46.1884 0
      vertex 79.3956 48.7893 0
      vertex 79.5729 48.8532 0
    endloop
  endfacet
  facet normal 0 0 -1
    outer loop
      vertex 77.5059 -46.1884 0
      vertex 79.5729 48.8532 0
      vertex 79.7539 48.9057 0
    endloop
  endfacet
  facet normal 0 0 -1
    outer loop
      vertex 77.5059 -46.1884 0
      vertex 79.7539 48.9057 0
      vertex 79.9379 48.9469 0
    endloop
  endfacet
  facet normal 0 0 -1
    outer loop
      vertex 77.5059 -46.1884 0
      vertex 79.9379 48.9469 0
      vertex 80.124 48.9763 0
    endloop
  endfacet
  facet normal 0 0 -1
    outer loop
      vertex 77.5059 -46.1884 0
      vertex 80.124 48.9763 0
      vertex 80.3116 48.9941 0
    endloop
  endfacet
  facet normal 0 0 -1
    outer loop
      vertex 77.5059 -46.1884 0
      vertex 80.3116 48.9941 0
      vertex 80.5 49 0
    endloop
  endfacet
  facet normal 0 0 -1
    outer loop
      vertex 77.5059 -46.1884 0
      vertex 80.5 49 0
      vertex 189.5 49 0
    endloop
  endfacet
  facet normal 0 0 -1
    outer loop
      vertex 77.5059 -46.1884 0
      vertex 189.5 49 0
      vertex 189.688 48.9941 0
    endloop
  endfacet
  facet normal 0 0 -1
    outer loop
      vertex 77.5059 -46.1884 0
      vertex 189.688 48.9941 0
      vertex 189.876 48.9763 0
    endloop
  endfacet
  facet normal 0 0 -1
    outer loop
      vertex 77.5059 -46.1884 0
      vertex 189.876 48.9763 0
      vertex 190.062 48.9469 0
    endloop
  endfacet
  facet normal 0 0 -1
    outer loop
      vertex 77.5059 -46.1884 0
      vertex 190.062 48.9469 0
      vertex 190.246 48.9057 0
    endloop
  endfacet
  facet normal 0 0 -1
    outer loop
      vertex 77.5059 -46.1884 0
      vertex 190.246 48.9057 0
      vertex 190.427 48.8532 0
    endloop
  endfacet
  facet normal 0 0 -1
    outer loop
      vertex 77.5059 -46.1884 0
      vertex 190.427 48.8532 0
      vertex 190.604 48.7893 0
    endloop
  endfacet
  facet normal 0 0 -1
    outer loop
      vertex 77.5059 -46.1884 0
      vertex 190.604 48.7893 0
      vertex 190.777 48.7145 0
    endloop
  endfacet
  facet normal 0 0 -1
    outer loop
      vertex 77.5059 -46.1884 0
      vertex 190.777 48.7145 0
      vertex 190.945 48.6289 0
    endloop
  endfacet
  facet normal 0 0 -1
    outer loop
      vertex 77.5059 -46.1884 0
      vertex 190.945 48.6289 0
      vertex 191.107 48.533 0
    endloop
  endfacet
  facet normal 0 0 -1
    outer loop
      vertex 77.5059 -46.1884 0
      vertex 191.107 48.533 0
      vertex 191.263 48.4271 0
    endloop
  endfacet
  facet normal 0 0 -1
    outer loop
      vertex 77.5059 -46.1884 0
      vertex 191.263 48.4271 0
      vertex 191.412 48.3115 0
    endloop
  endfacet
  facet normal 0 0 -1
    outer loop
      vertex 77.5059 -46.1884 0
      vertex 191.412 48.3115 0
      vertex 191.554 48.1869 0
    endloop
  endfacet
  facet normal 0 0 -1
    outer loop
      vertex 77.5059 -46.1884 0
      vertex 191.554 48.1869 0
      vertex 191.687 48.0536 0
    endloop
  endfacet
  facet normal 0 0 -1
    outer loop
      vertex 77.5059 -46.1884 0
      vertex 191.687 48.0536 0
      vertex 191.812 47.9123 0
    endloop
  endfacet
  facet normal 0 0 -1
    outer loop
      vertex 77.5059 -46.1884 0
      vertex 191.812 47.9123 0
      vertex 191.927 47.7634 0
    endloop
  endfacet
  facet normal 0 0 -1
    outer loop
      vertex 77.5059 -46.1884 0
      vertex 191.927 47.7634 0
      vertex 192.033 47.6075 0
    endloop
  endfacet
  facet normal 0 0 -1
    outer loop
      vertex 77.5059 -46.1884 0
      vertex 192.033 47.6075 0
      vertex 192.129 47.4453 0
    endloop
  endfacet
  facet normal 0 0 -1
    outer loop
      vertex 77.5059 -46.1884 0
      vertex 192.129 47.4453 0
      vertex 192.214 47.2773 0
    endloop
  endfacet
  facet normal 0 0 -1
    outer loop
      vertex 77.5059 -46.1884 0
      vertex 192.214 47.2773 0
      vertex 192.289 47.1044 0
    endloop
  endfacet
  facet normal 0 0 -1
    outer loop
      vertex 77.5059 -46.1884 0
      vertex 192.289 47.1044 0
      vertex 192.353 46.9271 0
    endloop
  endfacet
  facet normal 0 0 -1
    outer loop
      vertex 77.5059 -46.1884 0
      vertex 192.353 46.9271 0
      vertex 192.406 46.7461 0
    endloop
  endfacet
  facet normal 0 0 -1
    outer loop
      vertex 77.5059 -46.1884 0
      vertex 192.406 46.7461 0
      vertex 192.447 46.5621 0
    endloop
  endfacet
  facet normal 0 0 -1
    outer loop
      vertex 77.5059 -46.1884 0
      vertex 192.447 46.5621 0
      vertex 192.476 46.376 0
    endloop
  endfacet
  facet normal 0 0 -1
    outer loop
      vertex 77.5059 -46.1884 0
      vertex 192.476 46.376 0
      vertex 192.494 46.1884 0
    endloop
  endfacet
  facet normal 0 0 -1
    outer loop
      vertex 77.5059 -46.1884 0
      vertex 192.494 46.1884 0
      vertex 192.5 46 0
    endloop
  endfacet
  facet normal 0 0 -1
    outer loop
      vertex 77.5059 -46.1884 0
      vertex 192.5 46 0
      vertex 192.5 -46 0
    endloop
  endfacet
  facet normal 0 0 -1
    outer loop
      vertex 77.5059 -46.1884 0
      vertex 192.5 -46 0
      vertex 192.494 -46.1884 0
    endloop
  endfacet
  facet normal 0 0 -1
    outer loop
      vertex 77.5059 -46.1884 0
      vertex 192.494 -46.1884 0
      vertex 192.476 -46.376 0
    endloop
  endfacet
  facet normal 0 0 -1
    outer loop
      vertex 77.5059 -46.1884 0
      vertex 192.476 -46.376 0
      vertex 192.447 -46.5621 0
    endloop
  endfacet
  facet normal 0 0 -1
    outer loop
      vertex 77.5059 -46.1884 0
      vertex 192.447 -46.5621 0
      vertex 192.406 -46.7461 0
    endloop
  endfacet
  facet normal 0 0 -1
    outer loop
      vertex 77.5059 -46.1884 0
      vertex 192.406 -46.7461 0
      vertex 192.353 -46.9271 0
    endloop
  endfacet
  facet normal 0 0 -1
    outer loop
      vertex 77.5059 -46.1884 0
      vertex 192.353 -46.9271 0
      vertex 192.289 -47.1044 0
    endloop
  endfacet
  facet normal 0 0 -1
    outer loop
      vertex 77.5059 -46.1884 0
      vertex 192.289 -47.1044 0
      vertex 192.214 -47.2773 0
    endloop
  endfacet
  facet normal 0 0 -1
    outer loop
      vertex 77.5059 -46.1884 0
      vertex 192.214 -47.2773 0
      vertex 192.129 -47.4453 0
    endloop
  endfacet
  facet normal 0 0 -1
    outer loop
      vertex 77.5059 -46.1884 0
      vertex 192.129 -47.4453 0
      vertex 192.033 -47.6075 0
    endloop
  endfacet
  facet normal 0 0 -1
    outer loop
      vertex 77.5059 -46.1884 0
      vertex 192.033 -47.6075 0
      vertex 191.927 -47.7634 0
    endloop
  endfacet
  facet normal 0 0 -1
    outer loop
      vertex 77.5059 -46.1884 0
      vertex 191.927 -47.7634 0
      vertex 191.812 -47.9123 0
    endloop
  endfacet
  facet normal 0 0 -1
    outer loop
      vertex 77.5059 -46.1884 0
      vertex 191.812 -47.9123 0
      vertex 191.687 -48.0536 0
    endloop
  endfacet
  facet normal 0 0 -1
    outer loop
      vertex 77.5059 -46.1884 0
      vertex 191.687 -48.0536 0
      vertex 191.554 -48.1869 0
    endloop
  endfacet
  facet normal 0 0 -1
    outer loop
      vertex 77.5059 -46.1884 0
      vertex 191.554 -48.1869 0
      vertex 191.412 -48.3115 0
    endloop
  endfacet
  facet normal 0 0 -1
    outer loop
      vertex 77.5059 -46.1884 0
      vertex 191.412 -48.3115 0
      vertex 191.263 -48.4271 0
    endloop
  endfacet
  facet normal 0 0 -1
    outer loop
      vertex 77.5059 -46.1884 0
      vertex 191.263 -48.4271 0
      vertex 191.107 -48.533 0
    endloop
  endfacet
  facet normal 0 0 -1
    outer loop
      vertex 77.5059 -46.1884 0
      vertex 191.107 -48.533 0
      vertex 190.945 -48.6289 0
    endloop
  endfacet
  facet normal 0 0 -1
    outer loop
      vertex 77.5059 -46.1884 0
      vertex 190.945 -48.6289 0
      vertex 190.777 -48.7145 0
    endloop
  endfacet
  facet normal 0 0 -1
    outer loop
      vertex 77.5059 -46.1884 0
      vertex 190.777 -48.7145 0
      vertex 190.604 -48.7893 0
    endloop
  endfacet
  facet normal 0 0 -1
    outer loop
      vertex 77.5059 -46.1884 0
      vertex 190.604 -48.7893 0
      vertex 190.427 -48.8532 0
    endloop
  endfacet
  facet normal 0 0 -1
    outer loop
      vertex 77.5059 -46.1884 0
      vertex 190.427 -48.8532 0
      vertex 190.246 -48.9057 0
    endloop
  endfacet
  facet normal 0 0 -1
    outer loop
      vertex 77.5059 -46.1884 0
      vertex 190.246 -48.9057 0
      vertex 190.062 -48.9469 0
    endloop
  endfacet
  facet normal 0 0 -1
    outer loop
      vertex 77.5059 -46.1884 0
      vertex 190.062 -48.9469 0
      vertex 189.876 -48.9763 0
    endloop
  endfacet
  facet normal 0 0 -1
    outer loop
      vertex 77.5059 -46.1884 0
      vertex 189.876 -48.9763 0
      vertex 189.688 -48.9941 0
    endloop
  endfacet
  facet normal 0 0 -1
    outer loop
      vertex 77.5059 -46.1884 0
      vertex 189.688 -48.9941 0
      vertex 189.5 -49 0
    endloop
  endfacet
  facet normal 0 0 -1
    outer loop
      vertex 77.5059 -46.1884 0
      vertex 189.5 -49 0
      vertex 80.5 -49 0
    endloop
  endfacet
  facet normal 0 0 -1
    outer loop
      vertex 77.5059 -46.1884 0
      vertex 80.5 -49 0
      vertex 80.3116 -48.9941 0
    endloop
  endfacet
  facet normal 0 0 -1
    outer loop
      vertex 77.5059 -46.1884 0
      vertex 80.3116 -48.9941 0
      vertex 80.124 -48.9763 0
    endloop
  endfacet
  facet normal 0 0 -1
    outer loop
      vertex 77.5059 -46.1884 0
      vertex 80.124 -48.9763 0
      vertex 79.9379 -48.9469 0
    endloop
  endfacet
  facet normal 0 0 -1
    outer loop
      vertex 77.5059 -46.1884 0
      vertex 79.9379 -48.9469 0
      vertex 79.7539 -48.9057 0
    endloop
  endfacet
  facet normal 0 0 -1
    outer loop
      vertex 77.5059 -46.1884 0
      vertex 79.7539 -48.9057 0
      vertex 79.5729 -48.8532 0
    endloop
  endfacet
  facet normal 0 0 -1
    outer loop
      vertex 77.5059 -46.1884 0
      vertex 79.5729 -48.8532 0
      vertex 79.3956 -48.7893 0
    endloop
  endfacet
  facet normal 0 0 -1
    outer loop
      vertex 77.5059 -46.1884 0
      vertex 79.3956 -48.7893 0
      vertex 79.2227 -48.7145 0
    endloop
  endfacet
  facet normal 0 0 -1
    outer loop
      vertex 77.5059 -46.1884 0
      vertex 79.2227 -48.7145 0
      vertex 79.0547 -48.6289 0
    endloop
  endfacet
  facet normal 0 0 -1
    outer loop
      vertex 77.5059 -46.1884 0
      vertex 79.0547 -48.6289 0
      vertex 78.8925 -48.533 0
    endloop
  endfacet
  facet normal 0 0 -1
    outer loop
      vertex 77.5059 -46.1884 0
      vertex 78.8925 -48.533 0
      vertex 78.7366 -48.4271 0
    endloop
  endfacet
  facet normal 0 0 -1
    outer loop
      vertex 77.5059 -46.1884 0
      vertex 78.7366 -48.4271 0
      vertex 78.5877 -48.3115 0
    endloop
  endfacet
  facet normal 0 0 -1
    outer loop
      vertex 77.5059 -46.1884 0
      vertex 78.5877 -48.3115 0
      vertex 78.4464 -48.1869 0
    endloop
  endfacet
  facet normal 0 0 -1
    outer loop
      vertex 77.5059 -46.1884 0
      vertex 78.4464 -48.1869 0
      vertex 78.3131 -48.0536 0
    endloop
  endfacet
  facet normal 0 0 -1
    outer loop
      vertex 77.5059 -46.1884 0
      vertex 78.3131 -48.0536 0
      vertex 78.1885 -47.9123 0
    endloop
  endfacet
  facet normal 0 0 -1
    outer loop
      vertex 77.5059 -46.1884 0
      vertex 78.1885 -47.9123 0
      vertex 78.0729 -47.7634 0
    endloop
  endfacet
  facet normal 0 0 -1
    outer loop
      vertex 77.5059 -46.1884 0
      vertex 78.0729 -47.7634 0
      vertex 77.967 -47.6075 0
    endloop
  endfacet
  facet normal 0 0 -1
    outer loop
      vertex 77.5059 -46.1884 0
      vertex 77.967 -47.6075 0
      vertex 77.8711 -47.4453 0
    endloop
  endfacet
  facet normal 0 0 -1
    outer loop
      vertex 77.5059 -46.1884 0
      vertex 77.8711 -47.4453 0
      vertex 77.7855 -47.2773 0
    endloop
  endfacet
  facet normal 0 0 -1
    outer loop
      vertex 77.5059 -46.1884 0
      vertex 77.7855 -47.2773 0
      vertex 77.7107 -47.1044 0
    endloop
  endfacet
  facet normal 0 0 -1
    outer loop
      vertex 77.5059 -46.1884 0
      vertex 77.7107 -47.1044 0
      vertex 77.6468 -46.9271 0
    endloop
  endfacet
  facet normal 0 0 -1
    outer loop
      vertex 77.5059 -46.1884 0
      vertex 77.6468 -46.9271 0
      vertex 77.5943 -46.7461 0
    endloop
  endfacet
  facet normal 0 0 -1
    outer loop
      vertex 77.5059 -46.1884 0
      vertex 77.5943 -46.7461 0
      vertex 77.5531 -46.5621 0
    endloop
  endfacet
  facet normal 0 0 -1
    outer loop
      vertex 77.5059 -46.1884 0
      vertex 77.5531 -46.5621 0
      vertex 77.5237 -46.376 0
    endloop
  endfacet
  facet normal -0.999329 0.0314061 -0.0188437
    outer loop
      vertex 77.5059 46.1884 0
      vertex 77.5 46 0
      vertex 77.5 49 5
    endloop
  endfacet
  facet normal -0.496925 0.840255 -0.216878
    outer loop
      vertex 78.8925 48.533 0
      vertex 77.5 49 5
      vertex 79.0547 48.6289 0
    endloop
  endfacet
  facet normal -0.44454 0.872459 -0.202979
    outer loop
      vertex 79.0547 48.6289 0
      vertex 77.5 49 5
      vertex 79.2227 48.7145 0
    endloop
  endfacet
  facet normal -0.390221 0.901751 -0.185937
    outer loop
      vertex 79.2227 48.7145 0
      vertex 77.5 49 5
      vertex 79.3956 48.7893 0
    endloop
  endfacet
  facet normal -0.334056 0.927866 -0.165744
    outer loop
      vertex 79.3956 48.7893 0
      vertex 77.5 49 5
      vertex 79.5729 48.8532 0
    endloop
  endfacet
  facet normal -0.276144 0.950509 -0.142399
    outer loop
      vertex 79.5729 48.8532 0
      vertex 77.5 49 5
      vertex 79.7539 48.9057 0
    endloop
  endfacet
  facet normal -0.216675 0.969334 -0.115946
    outer loop
      vertex 79.7539 48.9057 0
      vertex 77.5 49 5
      vertex 79.9379 48.9469 0
    endloop
  endfacet
  facet normal -0.155847 0.983991 -0.0864441
    outer loop
      vertex 79.9379 48.9469 0
      vertex 77.5 49 5
      vertex 80.124 48.9763 0
    endloop
  endfacet
  facet normal -0.0939705 0.994108 -0.0540191
    outer loop
      vertex 80.124 48.9763 0
      vertex 77.5 49 5
      vertex 80.3116 48.9941 0
    endloop
  endfacet
  facet normal -0.0314061 0.999329 -0.0188437
    outer loop
      vertex 80.3116 48.9941 0
      vertex 77.5 49 5
      vertex 80.5 49 0
    endloop
  endfacet
  facet normal 0 1 0
    outer loop
      vertex 77.5 49 5
      vertex 77.5 49 45
      vertex 80.5 49 0
    endloop
  endfacet
  facet normal 0 1 0
    outer loop
      vertex 80.5 49 0
      vertex 77.5 49 45
      vertex 192.5 49 45
    endloop
  endfacet
  facet normal 0 1 0
    outer loop
      vertex 80.5 49 0
      vertex 192.5 49 45
      vertex 192.5 49 5
    endloop
  endfacet
  facet normal 0 1 0
    outer loop
      vertex 80.5 49 0
      vertex 192.5 49 5
      vertex 189.5 49 0
    endloop
  endfacet
  facet normal -0.994108 0.0939705 -0.0540191
    outer loop
      vertex 77.5059 46.1884 0
      vertex 77.5 49 5
      vertex 77.5237 46.376 0
    endloop
  endfacet
  facet normal -0.983991 0.155847 -0.0864441
    outer loop
      vertex 77.5237 46.376 0
      vertex 77.5 49 5
      vertex 77.5531 46.5621 0
    endloop
  endfacet
  facet normal -0.969334 0.216675 -0.115946
    outer loop
      vertex 77.5531 46.5621 0
      vertex 77.5 49 5
      vertex 77.5943 46.7461 0
    endloop
  endfacet
  facet normal -0.950509 0.276144 -0.142399
    outer loop
      vertex 77.5943 46.7461 0
      vertex 77.5 49 5
      vertex 77.6468 46.9271 0
    endloop
  endfacet
  facet normal -0.927866 0.334056 -0.165744
    outer loop
      vertex 77.6468 46.9271 0
      vertex 77.5 49 5
      vertex 77.7107 47.1044 0
    endloop
  endfacet
  facet normal -0.901751 0.390221 -0.185937
    outer loop
      vertex 77.7107 47.1044 0
      vertex 77.5 49 5
      vertex 77.7855 47.2773 0
    endloop
  endfacet
  facet normal -0.872459 0.44454 -0.202979
    outer loop
      vertex 77.7855 47.2773 0
      vertex 77.5 49 5
      vertex 77.8711 47.4453 0
    endloop
  endfacet
  facet normal -0.840255 0.496925 -0.216878
    outer loop
      vertex 77.8711 47.4453 0
      vertex 77.5 49 5
      vertex 77.967 47.6075 0
    endloop
  endfacet
  facet normal -0.805363 0.547323 -0.227655
    outer loop
      vertex 77.967 47.6075 0
      vertex 77.5 49 5
      vertex 78.0729 47.7634 0
    endloop
  endfacet
  facet normal -0.767964 0.595693 -0.235333
    outer loop
      vertex 78.0729 47.7634 0
      vertex 77.5 49 5
      vertex 78.1885 47.9123 0
    endloop
  endfacet
  facet normal -0.728199 0.641996 -0.239931
    outer loop
      vertex 78.1885 47.9123 0
      vertex 77.5 49 5
      vertex 78.3131 48.0536 0
    endloop
  endfacet
  facet normal -0.686184 0.686184 -0.241462
    outer loop
      vertex 78.3131 48.0536 0
      vertex 77.5 49 5
      vertex 78.4464 48.1869 0
    endloop
  endfacet
  facet normal -0.641996 0.728199 -0.239931
    outer loop
      vertex 78.4464 48.1869 0
      vertex 77.5 49 5
      vertex 78.5877 48.3115 0
    endloop
  endfacet
  facet normal -0.595693 0.767964 -0.235333
    outer loop
      vertex 78.5877 48.3115 0
      vertex 77.5 49 5
      vertex 78.7366 48.4271 0
    endloop
  endfacet
  facet normal -0.547323 0.805363 -0.227655
    outer loop
      vertex 78.7366 48.4271 0
      vertex 77.5 49 5
      vertex 78.8925 48.533 0
    endloop
  endfacet
  facet normal 0 0 1
    outer loop
      vertex 86.5 -45 45
      vertex 77.5 -49 45
      vertex 192.5 -49 45
    endloop
  endfacet
  facet normal 0 0 1
    outer loop
      vertex 77.5 49 45
      vertex 77.5 -49 45
      vertex 81.5 -40 45
    endloop
  endfacet
  facet normal 0 0 1
    outer loop
      vertex 183.5 -45 45
      vertex 86.5 -45 45
      vertex 192.5 -49 45
    endloop
  endfacet
  facet normal 0 0 1
    outer loop
      vertex 77.5 49 45
      vertex 81.5 -40 45
      vertex 81.5 40 45
    endloop
  endfacet
  facet normal 0 0 1
    outer loop
      vertex 77.5 49 45
      vertex 81.5 40 45
      vertex 81.8806 41.9134 45
    endloop
  endfacet
  facet normal 0 0 1
    outer loop
      vertex 86.5 45 45
      vertex 183.5 45 45
      vertex 192.5 49 45
    endloop
  endfacet
  facet normal 0 0 1
    outer loop
      vertex 77.5 49 45
      vertex 81.8806 41.9134 45
      vertex 82.9645 43.5355 45
    endloop
  endfacet
  facet normal 0 0 1
    outer loop
      vertex 86.5 45 45
      vertex 77.5 49 45
      vertex 84.5866 44.6194 45
    endloop
  endfacet
  facet normal 0 0 1
    outer loop
      vertex 192.5 49 45
      vertex 77.5 49 45
      vertex 86.5 45 45
    endloop
  endfacet
  facet normal 0 0 1
    outer loop
      vertex 192.5 49 45
      vertex 183.5 45 45
      vertex 185.413 44.6194 45
    endloop
  endfacet
  facet normal 0 0 1
    outer loop
      vertex 192.5 49 45
      vertex 185.413 44.6194 45
      vertex 187.036 43.5355 45
    endloop
  endfacet
  facet normal 0 0 1
    outer loop
      vertex 187.036 -43.5355 45
      vertex 185.413 -44.6194 45
      vertex 192.5 -49 45
    endloop
  endfacet
  facet normal 0 0 1
    outer loop
      vertex 192.5 49 45
      vertex 187.036 43.5355 45
      vertex 188.119 41.9134 45
    endloop
  endfacet
  facet normal 0 0 1
    outer loop
      vertex 192.5 49 45
      vertex 188.5 40 45
      vertex 192.5 -49 45
    endloop
  endfacet
  facet normal 0 0 1
    outer loop
      vertex 192.5 49 45
      vertex 188.119 41.9134 45
      vertex 188.5 40 45
    endloop
  endfacet
  facet normal 0 0 1
    outer loop
      vertex 188.5 -40 45
      vertex 188.119 -41.9134 45
      vertex 192.5 -49 45
    endloop
  endfacet
  facet normal 0 0 1
    outer loop
      vertex 188.119 -41.9134 45
      vertex 187.036 -43.5355 45
      vertex 192.5 -49 45
    endloop
  endfacet
  facet normal 0 0 1
    outer loop
      vertex 185.413 -44.6194 45
      vertex 183.5 -45 45
      vertex 192.5 -49 45
    endloop
  endfacet
  facet normal 0 0 1
    outer loop
      vertex 84.5866 -44.6194 45
      vertex 77.5 -49 45
      vertex 86.5 -45 45
    endloop
  endfacet
  facet normal 0 0 1
    outer loop
      vertex 82.9645 -43.5355 45
      vertex 77.5 -49 45
      vertex 84.5866 -44.6194 45
    endloop
  endfacet
  facet normal 0 0 1
    outer loop
      vertex 81.8806 -41.9134 45
      vertex 77.5 -49 45
      vertex 82.9645 -43.5355 45
    endloop
  endfacet
  facet normal 0 0 1
    outer loop
      vertex 81.5 -40 45
      vertex 77.5 -49 45
      vertex 81.8806 -41.9134 45
    endloop
  endfacet
  facet normal 0 0 1
    outer loop
      vertex 82.9645 43.5355 45
      vertex 84.5866 44.6194 45
      vertex 77.5 49 45
    endloop
  endfacet
  facet normal 0 0 1
    outer loop
      vertex 188.5 40 45
      vertex 188.5 -40 45
      vertex 192.5 -49 45
    endloop
  endfacet
  facet normal 1 0 0
    outer loop
      vertex 192.5 -49 45
      vertex 192.5 -49 5
      vertex 192.5 -46 0
    endloop
  endfacet
  facet normal 1 0 0
    outer loop
      vertex 192.5 49 5
      vertex 192.5 -49 45
      vertex 192.5 46 0
    endloop
  endfacet
  facet normal 1 0 0
    outer loop
      vertex 192.5 46 0
      vertex 192.5 -49 45
      vertex 192.5 -46 0
    endloop
  endfacet
  facet normal 1 0 0
    outer loop
      vertex 192.5 49 45
      vertex 192.5 -49 45
      vertex 192.5 49 5
    endloop
  endfacet
  facet normal 0.0939705 -0.994108 -0.0540191
    outer loop
      vertex 192.5 -49 5
      vertex 189.688 -48.9941 0
      vertex 189.876 -48.9763 0
    endloop
  endfacet
  facet normal 0.0314061 -0.999329 -0.0188437
    outer loop
      vertex 192.5 -49 5
      vertex 189.5 -49 0
      vertex 189.688 -48.9941 0
    endloop
  endfacet
  facet normal 0.999329 -0.0314061 -0.0188437
    outer loop
      vertex 192.5 -49 5
      vertex 192.494 -46.1884 0
      vertex 192.5 -46 0
    endloop
  endfacet
  facet normal 0.994108 -0.0939705 -0.0540191
    outer loop
      vertex 192.5 -49 5
      vertex 192.476 -46.376 0
      vertex 192.494 -46.1884 0
    endloop
  endfacet
  facet normal 0.983991 -0.155847 -0.0864441
    outer loop
      vertex 192.5 -49 5
      vertex 192.447 -46.5621 0
      vertex 192.476 -46.376 0
    endloop
  endfacet
  facet normal 0.969334 -0.216675 -0.115946
    outer loop
      vertex 192.5 -49 5
      vertex 192.406 -46.7461 0
      vertex 192.447 -46.5621 0
    endloop
  endfacet
  facet normal 0.950509 -0.276144 -0.142399
    outer loop
      vertex 192.5 -49 5
      vertex 192.353 -46.9271 0
      vertex 192.406 -46.7461 0
    endloop
  endfacet
  facet normal 0.927866 -0.334056 -0.165744
    outer loop
      vertex 192.5 -49 5
      vertex 192.289 -47.1044 0
      vertex 192.353 -46.9271 0
    endloop
  endfacet
  facet normal 0.901751 -0.390221 -0.185937
    outer loop
      vertex 192.5 -49 5
      vertex 192.214 -47.2773 0
      vertex 192.289 -47.1044 0
    endloop
  endfacet
  facet normal 0.872459 -0.44454 -0.202979
    outer loop
      vertex 192.5 -49 5
      vertex 192.129 -47.4453 0
      vertex 192.214 -47.2773 0
    endloop
  endfacet
  facet normal 0.840255 -0.496925 -0.216878
    outer loop
      vertex 192.5 -49 5
      vertex 192.033 -47.6075 0
      vertex 192.129 -47.4453 0
    endloop
  endfacet
  facet normal 0.805363 -0.547323 -0.227655
    outer loop
      vertex 192.5 -49 5
      vertex 191.927 -47.7634 0
      vertex 192.033 -47.6075 0
    endloop
  endfacet
  facet normal 0.767964 -0.595693 -0.235333
    outer loop
      vertex 192.5 -49 5
      vertex 191.812 -47.9123 0
      vertex 191.927 -47.7634 0
    endloop
  endfacet
  facet normal 0.728199 -0.641996 -0.239931
    outer loop
      vertex 192.5 -49 5
      vertex 191.687 -48.0536 0
      vertex 191.812 -47.9123 0
    endloop
  endfacet
  facet normal 0.686184 -0.686184 -0.241462
    outer loop
      vertex 192.5 -49 5
      vertex 191.554 -48.1869 0
      vertex 191.687 -48.0536 0
    endloop
  endfacet
  facet normal 0.641996 -0.728199 -0.239931
    outer loop
      vertex 192.5 -49 5
      vertex 191.412 -48.3115 0
      vertex 191.554 -48.1869 0
    endloop
  endfacet
  facet normal 0.595693 -0.767964 -0.235333
    outer loop
      vertex 192.5 -49 5
      vertex 191.263 -48.4271 0
      vertex 191.412 -48.3115 0
    endloop
  endfacet
  facet normal 0.547323 -0.805363 -0.227655
    outer loop
      vertex 192.5 -49 5
      vertex 191.107 -48.533 0
      vertex 191.263 -48.4271 0
    endloop
  endfacet
  facet normal 0.496925 -0.840255 -0.216878
    outer loop
      vertex 192.5 -49 5
      vertex 190.945 -48.6289 0
      vertex 191.107 -48.533 0
    endloop
  endfacet
  facet normal 0.44454 -0.872459 -0.202979
    outer loop
      vertex 192.5 -49 5
      vertex 190.777 -48.7145 0
      vertex 190.945 -48.6289 0
    endloop
  endfacet
  facet normal 0.390221 -0.901751 -0.185937
    outer loop
      vertex 192.5 -49 5
      vertex 190.604 -48.7893 0
      vertex 190.777 -48.7145 0
    endloop
  endfacet
  facet normal 0.334056 -0.927866 -0.165744
    outer loop
      vertex 192.5 -49 5
      vertex 190.427 -48.8532 0
      vertex 190.604 -48.7893 0
    endloop
  endfacet
  facet normal 0.276144 -0.950509 -0.142399
    outer loop
      vertex 192.5 -49 5
      vertex 190.246 -48.9057 0
      vertex 190.427 -48.8532 0
    endloop
  endfacet
  facet normal 0.216675 -0.969334 -0.115946
    outer loop
      vertex 192.5 -49 5
      vertex 190.062 -48.9469 0
      vertex 190.246 -48.9057 0
    endloop
  endfacet
  facet normal 0.155847 -0.983991 -0.0864441
    outer loop
      vertex 192.5 -49 5
      vertex 189.876 -48.9763 0
      vertex 190.062 -48.9469 0
    endloop
  endfacet
  facet normal 0.999329 0.0314061 -0.0188437
    outer loop
      vertex 192.5 46 0
      vertex 192.494 46.1884 0
      vertex 192.5 49 5
    endloop
  endfacet
  facet normal 0.994108 0.0939705 -0.0540191
    outer loop
      vertex 192.494 46.1884 0
      vertex 192.476 46.376 0
      vertex 192.5 49 5
    endloop
  endfacet
  facet normal 0.983991 0.155847 -0.0864441
    outer loop
      vertex 192.476 46.376 0
      vertex 192.447 46.5621 0
      vertex 192.5 49 5
    endloop
  endfacet
  facet normal 0.969334 0.216675 -0.115946
    outer loop
      vertex 192.447 46.5621 0
      vertex 192.406 46.7461 0
      vertex 192.5 49 5
    endloop
  endfacet
  facet normal 0.950509 0.276144 -0.142399
    outer loop
      vertex 192.406 46.7461 0
      vertex 192.353 46.9271 0
      vertex 192.5 49 5
    endloop
  endfacet
  facet normal 0.927866 0.334056 -0.165744
    outer loop
      vertex 192.353 46.9271 0
      vertex 192.289 47.1044 0
      vertex 192.5 49 5
    endloop
  endfacet
  facet normal 0.901751 0.390221 -0.185937
    outer loop
      vertex 192.289 47.1044 0
      vertex 192.214 47.2773 0
      vertex 192.5 49 5
    endloop
  endfacet
  facet normal 0.872459 0.44454 -0.202979
    outer loop
      vertex 192.214 47.2773 0
      vertex 192.129 47.4453 0
      vertex 192.5 49 5
    endloop
  endfacet
  facet normal 0.840255 0.496925 -0.216878
    outer loop
      vertex 192.129 47.4453 0
      vertex 192.033 47.6075 0
      vertex 192.5 49 5
    endloop
  endfacet
  facet normal 0.805363 0.547323 -0.227655
    outer loop
      vertex 192.033 47.6075 0
      vertex 191.927 47.7634 0
      vertex 192.5 49 5
    endloop
  endfacet
  facet normal 0.767964 0.595693 -0.235333
    outer loop
      vertex 191.927 47.7634 0
      vertex 191.812 47.9123 0
      vertex 192.5 49 5
    endloop
  endfacet
  facet normal 0.728199 0.641996 -0.239931
    outer loop
      vertex 191.812 47.9123 0
      vertex 191.687 48.0536 0
      vertex 192.5 49 5
    endloop
  endfacet
  facet normal 0.686184 0.686184 -0.241462
    outer loop
      vertex 191.687 48.0536 0
      vertex 191.554 48.1869 0
      vertex 192.5 49 5
    endloop
  endfacet
  facet normal 0.641996 0.728199 -0.239931
    outer loop
      vertex 191.554 48.1869 0
      vertex 191.412 48.3115 0
      vertex 192.5 49 5
    endloop
  endfacet
  facet normal 0.595693 0.767964 -0.235333
    outer loop
      vertex 191.412 48.3115 0
      vertex 191.263 48.4271 0
      vertex 192.5 49 5
    endloop
  endfacet
  facet normal 0.547323 0.805363 -0.227655
    outer loop
      vertex 191.263 48.4271 0
      vertex 191.107 48.533 0
      vertex 192.5 49 5
    endloop
  endfacet
  facet normal 0.496925 0.840255 -0.216878
    outer loop
      vertex 191.107 48.533 0
      vertex 190.945 48.6289 0
      vertex 192.5 49 5
    endloop
  endfacet
  facet normal 0.44454 0.872459 -0.202979
    outer loop
      vertex 190.945 48.6289 0
      vertex 190.777 48.7145 0
      vertex 192.5 49 5
    endloop
  endfacet
  facet normal 0.390221 0.901751 -0.185937
    outer loop
      vertex 190.777 48.7145 0
      vertex 190.604 48.7893 0
      vertex 192.5 49 5
    endloop
  endfacet
  facet normal 0.334056 0.927866 -0.165744
    outer loop
      vertex 190.604 48.7893 0
      vertex 190.427 48.8532 0
      vertex 192.5 49 5
    endloop
  endfacet
  facet normal 0.276144 0.950509 -0.142399
    outer loop
      vertex 190.427 48.8532 0
      vertex 190.246 48.9057 0
      vertex 192.5 49 5
    endloop
  endfacet
  facet normal 0.216675 0.969334 -0.115946
    outer loop
      vertex 190.246 48.9057 0
      vertex 190.062 48.9469 0
      vertex 192.5 49 5
    endloop
  endfacet
  facet normal 0.155847 0.983991 -0.0864441
    outer loop
      vertex 190.062 48.9469 0
      vertex 189.876 48.9763 0
      vertex 192.5 49 5
    endloop
  endfacet
  facet normal 0.0939705 0.994108 -0.0540191
    outer loop
      vertex 189.876 48.9763 0
      vertex 189.688 48.9941 0
      vertex 192.5 49 5
    endloop
  endfacet
  facet normal 0.0314061 0.999329 -0.0188437
    outer loop
      vertex 189.688 48.9941 0
      vertex 189.5 49 0
      vertex 192.5 49 5
    endloop
  endfacet
  facet normal 1 0 0
    outer loop
      vertex 81.5 40 13
      vertex 81.5 40 45
      vertex 81.5 -40 45
    endloop
  endfacet
  facet normal 1 0 0
    outer loop
      vertex 81.5 -40 13
      vertex 81.5 40 13
      vertex 81.5 -40 45
    endloop
  endfacet
  facet normal 0.980785 0.19509 0
    outer loop
      vertex 81.5 -40 45
      vertex 81.8806 -41.9134 45
      vertex 81.8806 -41.9134 13
    endloop
  endfacet
  facet normal 0.980785 0.19509 0
    outer loop
      vertex 81.5 -40 13
      vertex 81.5 -40 45
      vertex 81.8806 -41.9134 13
    endloop
  endfacet
  facet normal 0.83147 0.55557 0
    outer loop
      vertex 81.8806 -41.9134 45
      vertex 82.9645 -43.5355 45
      vertex 82.9645 -43.5355 13
    endloop
  endfacet
  facet normal 0.83147 0.55557 0
    outer loop
      vertex 81.8806 -41.9134 13
      vertex 81.8806 -41.9134 45
      vertex 82.9645 -43.5355 13
    endloop
  endfacet
  facet normal 0.55557 0.83147 0
    outer loop
      vertex 84.5866 -44.6194 45
      vertex 84.5866 -44.6194 13
      vertex 82.9645 -43.5355 45
    endloop
  endfacet
  facet normal 0.55557 0.83147 0
    outer loop
      vertex 82.9645 -43.5355 45
      vertex 84.5866 -44.6194 13
      vertex 82.9645 -43.5355 13
    endloop
  endfacet
  facet normal 0.19509 0.980785 0
    outer loop
      vertex 86.5 -45 45
      vertex 86.5 -45 13
      vertex 84.5866 -44.6194 45
    endloop
  endfacet
  facet normal 0.19509 0.980785 0
    outer loop
      vertex 84.5866 -44.6194 45
      vertex 86.5 -45 13
      vertex 84.5866 -44.6194 13
    endloop
  endfacet
  facet normal 0 1 0
    outer loop
      vertex 183.5 -45 45
      vertex 183.5 -45 13
      vertex 86.5 -45 45
    endloop
  endfacet
  facet normal 0 1 0
    outer loop
      vertex 86.5 -45 45
      vertex 183.5 -45 13
      vertex 86.5 -45 13
    endloop
  endfacet
  facet normal -0.19509 0.980785 0
    outer loop
      vertex 185.413 -44.6194 45
      vertex 185.413 -44.6194 13
      vertex 183.5 -45 45
    endloop
  endfacet
  facet normal -0.19509 0.980785 0
    outer loop
      vertex 183.5 -45 45
      vertex 185.413 -44.6194 13
      vertex 183.5 -45 13
    endloop
  endfacet
  facet normal -0.55557 0.83147 0
    outer loop
      vertex 187.036 -43.5355 45
      vertex 187.036 -43.5355 13
      vertex 185.413 -44.6194 45
    endloop
  endfacet
  facet normal -0.55557 0.83147 0
    outer loop
      vertex 185.413 -44.6194 45
      vertex 187.036 -43.5355 13
      vertex 185.413 -44.6194 13
    endloop
  endfacet
  facet normal -0.83147 0.55557 0
    outer loop
      vertex 188.119 -41.9134 45
      vertex 188.119 -41.9134 13
      vertex 187.036 -43.5355 45
    endloop
  endfacet
  facet normal -0.83147 0.55557 0
    outer loop
      vertex 187.036 -43.5355 45
      vertex 188.119 -41.9134 13
      vertex 187.036 -43.5355 13
    endloop
  endfacet
  facet normal -0.980785 0.19509 0
    outer loop
      vertex 188.5 -40 45
      vertex 188.5 -40 13
      vertex 188.119 -41.9134 45
    endloop
  endfacet
  facet normal -0.980785 0.19509 0
    outer loop
      vertex 188.119 -41.9134 45
      vertex 188.5 -40 13
      vertex 188.119 -41.9134 13
    endloop
  endfacet
  facet normal -1 0 0
    outer loop
      vertex 188.5 40 45
      vertex 188.5 40 13
      vertex 188.5 -40 45
    endloop
  endfacet
  facet normal -1 0 0
    outer loop
      vertex 188.5 -40 45
      vertex 188.5 40 13
      vertex 188.5 -40 13
    endloop
  endfacet
  facet normal -0.980785 -0.19509 0
    outer loop
      vertex 188.5 40 45
      vertex 188.119 41.9134 45
      vertex 188.5 40 13
    endloop
  endfacet
  facet normal -0.980785 -0.19509 0
    outer loop
      vertex 188.5 40 13
      vertex 188.119 41.9134 45
      vertex 188.119 41.9134 13
    endloop
  endfacet
  facet normal -0.83147 -0.55557 0
    outer loop
      vertex 188.119 41.9134 45
      vertex 187.036 43.5355 45
      vertex 188.119 41.9134 13
    endloop
  endfacet
  facet normal -0.83147 -0.55557 0
    outer loop
      vertex 188.119 41.9134 13
      vertex 187.036 43.5355 45
      vertex 187.036 43.5355 13
    endloop
  endfacet
  facet normal -0.55557 -0.83147 0
    outer loop
      vertex 187.036 43.5355 13
      vertex 187.036 43.5355 45
      vertex 185.413 44.6194 45
    endloop
  endfacet
  facet normal -0.55557 -0.83147 0
    outer loop
      vertex 185.413 44.6194 13
      vertex 187.036 43.5355 13
      vertex 185.413 44.6194 45
    endloop
  endfacet
  facet normal -0.19509 -0.980785 0
    outer loop
      vertex 185.413 44.6194 13
      vertex 185.413 44.6194 45
      vertex 183.5 45 45
    endloop
  endfacet
  facet normal -0.19509 -0.980785 0
    outer loop
      vertex 183.5 45 13
      vertex 185.413 44.6194 13
      vertex 183.5 45 45
    endloop
  endfacet
  facet normal 0 -1 0
    outer loop
      vertex 183.5 45 13
      vertex 183.5 45 45
      vertex 86.5 45 45
    endloop
  endfacet
  facet normal 0 -1 0
    outer loop
      vertex 86.5 45 13
      vertex 183.5 45 13
      vertex 86.5 45 45
    endloop
  endfacet
  facet normal 0.19509 -0.980785 0
    outer loop
      vertex 86.5 45 13
      vertex 86.5 45 45
      vertex 84.5866 44.6194 45
    endloop
  endfacet
  facet normal 0.19509 -0.980785 0
    outer loop
      vertex 84.5866 44.6194 13
      vertex 86.5 45 13
      vertex 84.5866 44.6194 45
    endloop
  endfacet
  facet normal 0.55557 -0.83147 0
    outer loop
      vertex 84.5866 44.6194 13
      vertex 84.5866 44.6194 45
      vertex 82.9645 43.5355 45
    endloop
  endfacet
  facet normal 0.55557 -0.83147 0
    outer loop
      vertex 82.9645 43.5355 13
      vertex 84.5866 44.6194 13
      vertex 82.9645 43.5355 45
    endloop
  endfacet
  facet normal 0.83147 -0.55557 0
    outer loop
      vertex 82.9645 43.5355 13
      vertex 82.9645 43.5355 45
      vertex 81.8806 41.9134 45
    endloop
  endfacet
  facet normal 0.83147 -0.55557 0
    outer loop
      vertex 81.8806 41.9134 13
      vertex 82.9645 43.5355 13
      vertex 81.8806 41.9134 45
    endloop
  endfacet
  facet normal 0.980785 -0.19509 0
    outer loop
      vertex 81.8806 41.9134 13
      vertex 81.8806 41.9134 45
      vertex 81.5 40 45
    endloop
  endfacet
  facet normal 0.980785 -0.19509 0
    outer loop
      vertex 81.5 40 13
      vertex 81.8806 41.9134 13
      vertex 81.5 40 45
    endloop
  endfacet
  facet normal 0 0 1
    outer loop
      vertex 81.8806 -41.9134 13
      vertex 82.9645 -43.5355 13
      vertex 84.5866 -44.6194 13
    endloop
  endfacet
  facet normal 0 0 1
    outer loop
      vertex 183.5 -45 13
      vertex 81.8806 -41.9134 13
      vertex 86.5 -45 13
    endloop
  endfacet
  facet normal 0 0 1
    outer loop
      vertex 86.5 -45 13
      vertex 81.8806 -41.9134 13
      vertex 84.5866 -44.6194 13
    endloop
  endfacet
  facet normal 0 0 1
    outer loop
      vertex 185.413 -44.6194 13
      vertex 81.8806 -41.9134 13
      vertex 183.5 -45 13
    endloop
  endfacet
  facet normal 0 0 1
    outer loop
      vertex 187.036 -43.5355 13
      vertex 81.8806 -41.9134 13
      vertex 185.413 -44.6194 13
    endloop
  endfacet
  facet normal 0 0 1
    outer loop
      vertex 188.119 -41.9134 13
      vertex 81.8806 -41.9134 13
      vertex 187.036 -43.5355 13
    endloop
  endfacet
  facet normal 0 0 1
    outer loop
      vertex 188.5 -40 13
      vertex 81.8806 -41.9134 13
      vertex 188.119 -41.9134 13
    endloop
  endfacet
  facet normal 0 0 1
    outer loop
      vertex 91.454 -38.1837 13
      vertex 81.8806 -41.9134 13
      vertex 188.5 -40 13
    endloop
  endfacet
  facet normal 0 0 1
    outer loop
      vertex 89.5019 -38.4644 13
      vertex 87.708 -37.6451 13
      vertex 81.8806 -41.9134 13
    endloop
  endfacet
  facet normal 0 0 1
    outer loop
      vertex 179.502 31.5356 13
      vertex 177.708 32.3549 13
      vertex 92.9444 -33.1078 13
    endloop
  endfacet
  facet normal 0 0 1
    outer loop
      vertex 181.454 31.8163 13
      vertex 179.502 31.5356 13
      vertex 93.5 -35 13
    endloop
  endfacet
  facet normal 0 0 1
    outer loop
      vertex 84.5866 44.6194 13
      vertex 81.8806 -41.9134 13
      vertex 86.5 45 13
    endloop
  endfacet
  facet normal 0 0 1
    outer loop
      vertex 82.9645 43.5355 13
      vertex 81.8806 -41.9134 13
      vertex 84.5866 44.6194 13
    endloop
  endfacet
  facet normal 0 0 1
    outer loop
      vertex 81.8806 41.9134 13
      vertex 81.8806 -41.9134 13
      vertex 82.9645 43.5355 13
    endloop
  endfacet
  facet normal 0 0 1
    outer loop
      vertex 81.5 40 13
      vertex 81.8806 -41.9134 13
      vertex 81.8806 41.9134 13
    endloop
  endfacet
  facet normal 0 0 1
    outer loop
      vertex 81.5 -40 13
      vertex 81.8806 -41.9134 13
      vertex 81.5 40 13
    endloop
  endfacet
  facet normal 0 0 1
    outer loop
      vertex 91.454 -31.8163 13
      vertex 185.413 44.6194 13
      vertex 183.5 45 13
    endloop
  endfacet
  facet normal 0 0 1
    outer loop
      vertex 86.5 45 13
      vertex 81.8806 -41.9134 13
      vertex 86.6418 -34.0139 13
    endloop
  endfacet
  facet normal 0 0 1
    outer loop
      vertex 93.5 35 13
      vertex 87.708 -32.3549 13
      vertex 183.5 45 13
    endloop
  endfacet
  facet normal 0 0 1
    outer loop
      vertex 86.6418 34.0139 13
      vertex 86.6418 -34.0139 13
      vertex 87.708 -32.3549 13
    endloop
  endfacet
  facet normal 0 0 1
    outer loop
      vertex 87.708 -32.3549 13
      vertex 89.5019 -31.5356 13
      vertex 183.5 45 13
    endloop
  endfacet
  facet normal 0 0 1
    outer loop
      vertex 86.6418 34.0139 13
      vertex 86.6418 35.9861 13
      vertex 86.5 45 13
    endloop
  endfacet
  facet normal 0 0 1
    outer loop
      vertex 183.5 -35 13
      vertex 182.944 -36.8922 13
      vertex 188.5 -40 13
    endloop
  endfacet
  facet normal 0 0 1
    outer loop
      vertex 179.502 -38.4644 13
      vertex 93.5 -35 13
      vertex 188.5 -40 13
    endloop
  endfacet
  facet normal 0 0 1
    outer loop
      vertex 93.5 -35 13
      vertex 92.9444 -36.8922 13
      vertex 188.5 -40 13
    endloop
  endfacet
  facet normal 0 0 1
    outer loop
      vertex 92.9444 -36.8922 13
      vertex 91.454 -38.1837 13
      vertex 188.5 -40 13
    endloop
  endfacet
  facet normal 0 0 1
    outer loop
      vertex 89.5019 -38.4644 13
      vertex 81.8806 -41.9134 13
      vertex 91.454 -38.1837 13
    endloop
  endfacet
  facet normal 0 0 1
    outer loop
      vertex 87.708 -37.6451 13
      vertex 86.6418 -35.9861 13
      vertex 81.8806 -41.9134 13
    endloop
  endfacet
  facet normal 0 0 1
    outer loop
      vertex 86.6418 -34.0139 13
      vertex 81.8806 -41.9134 13
      vertex 86.6418 -35.9861 13
    endloop
  endfacet
  facet normal 0 0 1
    outer loop
      vertex 87.708 32.3549 13
      vertex 86.6418 34.0139 13
      vertex 87.708 -32.3549 13
    endloop
  endfacet
  facet normal 0 0 1
    outer loop
      vertex 92.9444 36.8922 13
      vertex 93.5 35 13
      vertex 183.5 45 13
    endloop
  endfacet
  facet normal 0 0 1
    outer loop
      vertex 86.5 45 13
      vertex 86.6418 35.9861 13
      vertex 87.708 37.6451 13
    endloop
  endfacet
  facet normal 0 0 1
    outer loop
      vertex 86.5 45 13
      vertex 89.5019 38.4644 13
      vertex 183.5 45 13
    endloop
  endfacet
  facet normal 0 0 1
    outer loop
      vertex 86.5 45 13
      vertex 87.708 37.6451 13
      vertex 89.5019 38.4644 13
    endloop
  endfacet
  facet normal 0 0 1
    outer loop
      vertex 89.5019 38.4644 13
      vertex 91.454 38.1837 13
      vertex 183.5 45 13
    endloop
  endfacet
  facet normal 0 0 1
    outer loop
      vertex 92.9444 33.1078 13
      vertex 87.708 -32.3549 13
      vertex 93.5 35 13
    endloop
  endfacet
  facet normal 0 0 1
    outer loop
      vertex 91.454 31.8163 13
      vertex 87.708 -32.3549 13
      vertex 92.9444 33.1078 13
    endloop
  endfacet
  facet normal 0 0 1
    outer loop
      vertex 89.5019 31.5356 13
      vertex 87.708 -32.3549 13
      vertex 91.454 31.8163 13
    endloop
  endfacet
  facet normal 0 0 1
    outer loop
      vertex 87.708 32.3549 13
      vertex 87.708 -32.3549 13
      vertex 89.5019 31.5356 13
    endloop
  endfacet
  facet normal 0 0 1
    outer loop
      vertex 182.944 -33.1078 13
      vertex 183.5 -35 13
      vertex 188.5 -40 13
    endloop
  endfacet
  facet normal 0 0 1
    outer loop
      vertex 91.454 38.1837 13
      vertex 92.9444 36.8922 13
      vertex 183.5 45 13
    endloop
  endfacet
  facet normal 0 0 1
    outer loop
      vertex 86.5 45 13
      vertex 86.6418 -34.0139 13
      vertex 86.6418 34.0139 13
    endloop
  endfacet
  facet normal 0 0 1
    outer loop
      vertex 179.502 -38.4644 13
      vertex 177.708 -37.6451 13
      vertex 93.5 -35 13
    endloop
  endfacet
  facet normal 0 0 1
    outer loop
      vertex 181.454 31.8163 13
      vertex 93.5 -35 13
      vertex 176.642 -34.0139 13
    endloop
  endfacet
  facet normal 0 0 1
    outer loop
      vertex 182.944 -36.8922 13
      vertex 181.454 -38.1837 13
      vertex 188.5 -40 13
    endloop
  endfacet
  facet normal 0 0 1
    outer loop
      vertex 188.5 40 13
      vertex 176.642 -34.0139 13
      vertex 177.708 -32.3549 13
    endloop
  endfacet
  facet normal 0 0 1
    outer loop
      vertex 176.642 34.0139 13
      vertex 91.454 -31.8163 13
      vertex 92.9444 -33.1078 13
    endloop
  endfacet
  facet normal 0 0 1
    outer loop
      vertex 188.5 40 13
      vertex 177.708 -32.3549 13
      vertex 179.502 -31.5356 13
    endloop
  endfacet
  facet normal 0 0 1
    outer loop
      vertex 188.5 40 13
      vertex 179.502 -31.5356 13
      vertex 181.454 -31.8163 13
    endloop
  endfacet
  facet normal 0 0 1
    outer loop
      vertex 188.5 40 13
      vertex 182.944 -33.1078 13
      vertex 188.5 -40 13
    endloop
  endfacet
  facet normal 0 0 1
    outer loop
      vertex 188.5 40 13
      vertex 181.454 -31.8163 13
      vertex 182.944 -33.1078 13
    endloop
  endfacet
  facet normal 0 0 1
    outer loop
      vertex 181.454 -38.1837 13
      vertex 179.502 -38.4644 13
      vertex 188.5 -40 13
    endloop
  endfacet
  facet normal 0 0 1
    outer loop
      vertex 176.642 -35.9861 13
      vertex 93.5 -35 13
      vertex 177.708 -37.6451 13
    endloop
  endfacet
  facet normal 0 0 1
    outer loop
      vertex 176.642 -34.0139 13
      vertex 93.5 -35 13
      vertex 176.642 -35.9861 13
    endloop
  endfacet
  facet normal 0 0 1
    outer loop
      vertex 177.708 32.3549 13
      vertex 176.642 34.0139 13
      vertex 92.9444 -33.1078 13
    endloop
  endfacet
  facet normal 0 0 1
    outer loop
      vertex 179.502 38.4644 13
      vertex 181.454 38.1837 13
      vertex 187.036 43.5355 13
    endloop
  endfacet
  facet normal 0 0 1
    outer loop
      vertex 185.413 44.6194 13
      vertex 179.502 38.4644 13
      vertex 187.036 43.5355 13
    endloop
  endfacet
  facet normal 0 0 1
    outer loop
      vertex 187.036 43.5355 13
      vertex 181.454 38.1837 13
      vertex 188.119 41.9134 13
    endloop
  endfacet
  facet normal 0 0 1
    outer loop
      vertex 181.454 38.1837 13
      vertex 182.944 36.8922 13
      vertex 188.119 41.9134 13
    endloop
  endfacet
  facet normal 0 0 1
    outer loop
      vertex 188.119 41.9134 13
      vertex 182.944 36.8922 13
      vertex 188.5 40 13
    endloop
  endfacet
  facet normal 0 0 1
    outer loop
      vertex 188.5 40 13
      vertex 183.5 35 13
      vertex 176.642 -34.0139 13
    endloop
  endfacet
  facet normal 0 0 1
    outer loop
      vertex 183.5 35 13
      vertex 182.944 33.1078 13
      vertex 176.642 -34.0139 13
    endloop
  endfacet
  facet normal 0 0 1
    outer loop
      vertex 182.944 33.1078 13
      vertex 181.454 31.8163 13
      vertex 176.642 -34.0139 13
    endloop
  endfacet
  facet normal 0 0 1
    outer loop
      vertex 179.502 31.5356 13
      vertex 92.9444 -33.1078 13
      vertex 93.5 -35 13
    endloop
  endfacet
  facet normal 0 0 1
    outer loop
      vertex 176.642 34.0139 13
      vertex 176.642 35.9861 13
      vertex 91.454 -31.8163 13
    endloop
  endfacet
  facet normal 0 0 1
    outer loop
      vertex 182.944 36.8922 13
      vertex 183.5 35 13
      vertex 188.5 40 13
    endloop
  endfacet
  facet normal 0 0 1
    outer loop
      vertex 89.5019 -31.5356 13
      vertex 91.454 -31.8163 13
      vertex 183.5 45 13
    endloop
  endfacet
  facet normal 0 0 1
    outer loop
      vertex 91.454 -31.8163 13
      vertex 177.708 37.6451 13
      vertex 185.413 44.6194 13
    endloop
  endfacet
  facet normal 0 0 1
    outer loop
      vertex 91.454 -31.8163 13
      vertex 176.642 35.9861 13
      vertex 177.708 37.6451 13
    endloop
  endfacet
  facet normal 0 0 1
    outer loop
      vertex 177.708 37.6451 13
      vertex 179.502 38.4644 13
      vertex 185.413 44.6194 13
    endloop
  endfacet
  facet normal 0.841254 -0.54064 0
    outer loop
      vertex 87.708 -32.3549 7.99
      vertex 87.708 -32.3549 13
      vertex 86.6418 -34.0139 13
    endloop
  endfacet
  facet normal 0.841254 -0.54064 0
    outer loop
      vertex 86.6418 -34.0139 7.99
      vertex 87.708 -32.3549 7.99
      vertex 86.6418 -34.0139 13
    endloop
  endfacet
  facet normal 1 0 0
    outer loop
      vertex 86.6418 -34.0139 7.99
      vertex 86.6418 -34.0139 13
      vertex 86.6418 -35.9861 13
    endloop
  endfacet
  facet normal 1 0 0
    outer loop
      vertex 86.6418 -35.9861 7.99
      vertex 86.6418 -34.0139 7.99
      vertex 86.6418 -35.9861 13
    endloop
  endfacet
  facet normal 0.841254 0.54064 0
    outer loop
      vertex 86.6418 -35.9861 13
      vertex 87.708 -37.6451 13
      vertex 87.708 -37.6451 7.99
    endloop
  endfacet
  facet normal 0.841254 0.54064 0
    outer loop
      vertex 86.6418 -35.9861 7.99
      vertex 86.6418 -35.9861 13
      vertex 87.708 -37.6451 7.99
    endloop
  endfacet
  facet normal 0.415415 0.909632 0
    outer loop
      vertex 89.5019 -38.4644 13
      vertex 89.5019 -38.4644 7.99
      vertex 87.708 -37.6451 13
    endloop
  endfacet
  facet normal 0.415415 0.909632 0
    outer loop
      vertex 87.708 -37.6451 13
      vertex 89.5019 -38.4644 7.99
      vertex 87.708 -37.6451 7.99
    endloop
  endfacet
  facet normal -0.142315 0.989821 0
    outer loop
      vertex 91.454 -38.1837 13
      vertex 91.454 -38.1837 7.99
      vertex 89.5019 -38.4644 13
    endloop
  endfacet
  facet normal -0.142315 0.989821 0
    outer loop
      vertex 89.5019 -38.4644 13
      vertex 91.454 -38.1837 7.99
      vertex 89.5019 -38.4644 7.99
    endloop
  endfacet
  facet normal -0.654861 0.755749 0
    outer loop
      vertex 92.9444 -36.8922 13
      vertex 92.9444 -36.8922 7.99
      vertex 91.454 -38.1837 13
    endloop
  endfacet
  facet normal -0.654861 0.755749 0
    outer loop
      vertex 91.454 -38.1837 13
      vertex 92.9444 -36.8922 7.99
      vertex 91.454 -38.1837 7.99
    endloop
  endfacet
  facet normal -0.959493 0.281733 0
    outer loop
      vertex 93.5 -35 13
      vertex 93.5 -35 7.99
      vertex 92.9444 -36.8922 13
    endloop
  endfacet
  facet normal -0.959493 0.281733 0
    outer loop
      vertex 92.9444 -36.8922 13
      vertex 93.5 -35 7.99
      vertex 92.9444 -36.8922 7.99
    endloop
  endfacet
  facet normal -0.959493 -0.281733 0
    outer loop
      vertex 93.5 -35 13
      vertex 92.9444 -33.1078 13
      vertex 93.5 -35 7.99
    endloop
  endfacet
  facet normal -0.959493 -0.281733 0
    outer loop
      vertex 93.5 -35 7.99
      vertex 92.9444 -33.1078 13
      vertex 92.9444 -33.1078 7.99
    endloop
  endfacet
  facet normal -0.654861 -0.755749 0
    outer loop
      vertex 92.9444 -33.1078 7.99
      vertex 92.9444 -33.1078 13
      vertex 91.454 -31.8163 13
    endloop
  endfacet
  facet normal -0.654861 -0.755749 0
    outer loop
      vertex 91.454 -31.8163 7.99
      vertex 92.9444 -33.1078 7.99
      vertex 91.454 -31.8163 13
    endloop
  endfacet
  facet normal -0.142315 -0.989821 0
    outer loop
      vertex 91.454 -31.8163 7.99
      vertex 91.454 -31.8163 13
      vertex 89.5019 -31.5356 13
    endloop
  endfacet
  facet normal -0.142315 -0.989821 0
    outer loop
      vertex 89.5019 -31.5356 7.99
      vertex 91.454 -31.8163 7.99
      vertex 89.5019 -31.5356 13
    endloop
  endfacet
  facet normal 0.415415 -0.909632 0
    outer loop
      vertex 89.5019 -31.5356 7.99
      vertex 89.5019 -31.5356 13
      vertex 87.708 -32.3549 13
    endloop
  endfacet
  facet normal 0.415415 -0.909632 0
    outer loop
      vertex 87.708 -32.3549 7.99
      vertex 89.5019 -31.5356 7.99
      vertex 87.708 -32.3549 13
    endloop
  endfacet
  facet normal 0.841254 -0.54064 0
    outer loop
      vertex 87.708 37.6451 7.99
      vertex 87.708 37.6451 13
      vertex 86.6418 35.9861 13
    endloop
  endfacet
  facet normal 0.841254 -0.54064 0
    outer loop
      vertex 86.6418 35.9861 7.99
      vertex 87.708 37.6451 7.99
      vertex 86.6418 35.9861 13
    endloop
  endfacet
  facet normal 1 0 0
    outer loop
      vertex 86.6418 35.9861 7.99
      vertex 86.6418 35.9861 13
      vertex 86.6418 34.0139 13
    endloop
  endfacet
  facet normal 1 0 0
    outer loop
      vertex 86.6418 34.0139 7.99
      vertex 86.6418 35.9861 7.99
      vertex 86.6418 34.0139 13
    endloop
  endfacet
  facet normal 0.841254 0.54064 0
    outer loop
      vertex 86.6418 34.0139 13
      vertex 87.708 32.3549 13
      vertex 87.708 32.3549 7.99
    endloop
  endfacet
  facet normal 0.841254 0.54064 0
    outer loop
      vertex 86.6418 34.0139 7.99
      vertex 86.6418 34.0139 13
      vertex 87.708 32.3549 7.99
    endloop
  endfacet
  facet normal 0.415415 0.909632 0
    outer loop
      vertex 89.5019 31.5356 13
      vertex 89.5019 31.5356 7.99
      vertex 87.708 32.3549 13
    endloop
  endfacet
  facet normal 0.415415 0.909632 0
    outer loop
      vertex 87.708 32.3549 13
      vertex 89.5019 31.5356 7.99
      vertex 87.708 32.3549 7.99
    endloop
  endfacet
  facet normal -0.142315 0.989821 0
    outer loop
      vertex 91.454 31.8163 13
      vertex 91.454 31.8163 7.99
      vertex 89.5019 31.5356 13
    endloop
  endfacet
  facet normal -0.142315 0.989821 0
    outer loop
      vertex 89.5019 31.5356 13
      vertex 91.454 31.8163 7.99
      vertex 89.5019 31.5356 7.99
    endloop
  endfacet
  facet normal -0.654861 0.755749 0
    outer loop
      vertex 92.9444 33.1078 13
      vertex 92.9444 33.1078 7.99
      vertex 91.454 31.8163 13
    endloop
  endfacet
  facet normal -0.654861 0.755749 0
    outer loop
      vertex 91.454 31.8163 13
      vertex 92.9444 33.1078 7.99
      vertex 91.454 31.8163 7.99
    endloop
  endfacet
  facet normal -0.959493 0.281733 0
    outer loop
      vertex 93.5 35 13
      vertex 93.5 35 7.99
      vertex 92.9444 33.1078 13
    endloop
  endfacet
  facet normal -0.959493 0.281733 0
    outer loop
      vertex 92.9444 33.1078 13
      vertex 93.5 35 7.99
      vertex 92.9444 33.1078 7.99
    endloop
  endfacet
  facet normal -0.959493 -0.281733 0
    outer loop
      vertex 93.5 35 13
      vertex 92.9444 36.8922 13
      vertex 93.5 35 7.99
    endloop
  endfacet
  facet normal -0.959493 -0.281733 0
    outer loop
      vertex 93.5 35 7.99
      vertex 92.9444 36.8922 13
      vertex 92.9444 36.8922 7.99
    endloop
  endfacet
  facet normal -0.654861 -0.755749 0
    outer loop
      vertex 92.9444 36.8922 7.99
      vertex 92.9444 36.8922 13
      vertex 91.454 38.1837 13
    endloop
  endfacet
  facet normal -0.654861 -0.755749 0
    outer loop
      vertex 91.454 38.1837 7.99
      vertex 92.9444 36.8922 7.99
      vertex 91.454 38.1837 13
    endloop
  endfacet
  facet normal -0.142315 -0.989821 0
    outer loop
      vertex 91.454 38.1837 7.99
      vertex 91.454 38.1837 13
      vertex 89.5019 38.4644 13
    endloop
  endfacet
  facet normal -0.142315 -0.989821 0
    outer loop
      vertex 89.5019 38.4644 7.99
      vertex 91.454 38.1837 7.99
      vertex 89.5019 38.4644 13
    endloop
  endfacet
  facet normal 0.415415 -0.909632 0
    outer loop
      vertex 89.5019 38.4644 7.99
      vertex 89.5019 38.4644 13
      vertex 87.708 37.6451 13
    endloop
  endfacet
  facet normal 0.415415 -0.909632 0
    outer loop
      vertex 87.708 37.6451 7.99
      vertex 89.5019 38.4644 7.99
      vertex 87.708 37.6451 13
    endloop
  endfacet
  facet normal 0.841254 -0.54064 0
    outer loop
      vertex 177.708 -32.3549 7.99
      vertex 177.708 -32.3549 13
      vertex 176.642 -34.0139 13
    endloop
  endfacet
  facet normal 0.841254 -0.54064 0
    outer loop
      vertex 176.642 -34.0139 7.99
      vertex 177.708 -32.3549 7.99
      vertex 176.642 -34.0139 13
    endloop
  endfacet
  facet normal 1 0 0
    outer loop
      vertex 176.642 -34.0139 7.99
      vertex 176.642 -34.0139 13
      vertex 176.642 -35.9861 13
    endloop
  endfacet
  facet normal 1 0 0
    outer loop
      vertex 176.642 -35.9861 7.99
      vertex 176.642 -34.0139 7.99
      vertex 176.642 -35.9861 13
    endloop
  endfacet
  facet normal 0.841254 0.54064 0
    outer loop
      vertex 176.642 -35.9861 13
      vertex 177.708 -37.6451 13
      vertex 177.708 -37.6451 7.99
    endloop
  endfacet
  facet normal 0.841254 0.54064 0
    outer loop
      vertex 176.642 -35.9861 7.99
      vertex 176.642 -35.9861 13
      vertex 177.708 -37.6451 7.99
    endloop
  endfacet
  facet normal 0.415415 0.909632 0
    outer loop
      vertex 179.502 -38.4644 13
      vertex 179.502 -38.4644 7.99
      vertex 177.708 -37.6451 13
    endloop
  endfacet
  facet normal 0.415415 0.909632 0
    outer loop
      vertex 177.708 -37.6451 13
      vertex 179.502 -38.4644 7.99
      vertex 177.708 -37.6451 7.99
    endloop
  endfacet
  facet normal -0.142315 0.989821 0
    outer loop
      vertex 181.454 -38.1837 13
      vertex 181.454 -38.1837 7.99
      vertex 179.502 -38.4644 13
    endloop
  endfacet
  facet normal -0.142315 0.989821 0
    outer loop
      vertex 179.502 -38.4644 13
      vertex 181.454 -38.1837 7.99
      vertex 179.502 -38.4644 7.99
    endloop
  endfacet
  facet normal -0.654861 0.755749 0
    outer loop
      vertex 182.944 -36.8922 13
      vertex 182.944 -36.8922 7.99
      vertex 181.454 -38.1837 13
    endloop
  endfacet
  facet normal -0.654861 0.755749 0
    outer loop
      vertex 181.454 -38.1837 13
      vertex 182.944 -36.8922 7.99
      vertex 181.454 -38.1837 7.99
    endloop
  endfacet
  facet normal -0.959493 0.281733 0
    outer loop
      vertex 183.5 -35 13
      vertex 183.5 -35 7.99
      vertex 182.944 -36.8922 13
    endloop
  endfacet
  facet normal -0.959493 0.281733 0
    outer loop
      vertex 182.944 -36.8922 13
      vertex 183.5 -35 7.99
      vertex 182.944 -36.8922 7.99
    endloop
  endfacet
  facet normal -0.959493 -0.281733 0
    outer loop
      vertex 183.5 -35 13
      vertex 182.944 -33.1078 13
      vertex 183.5 -35 7.99
    endloop
  endfacet
  facet normal -0.959493 -0.281733 0
    outer loop
      vertex 183.5 -35 7.99
      vertex 182.944 -33.1078 13
      vertex 182.944 -33.1078 7.99
    endloop
  endfacet
  facet normal -0.654861 -0.755749 0
    outer loop
      vertex 182.944 -33.1078 7.99
      vertex 182.944 -33.1078 13
      vertex 181.454 -31.8163 13
    endloop
  endfacet
  facet normal -0.654861 -0.755749 0
    outer loop
      vertex 181.454 -31.8163 7.99
      vertex 182.944 -33.1078 7.99
      vertex 181.454 -31.8163 13
    endloop
  endfacet
  facet normal -0.142315 -0.989821 0
    outer loop
      vertex 181.454 -31.8163 7.99
      vertex 181.454 -31.8163 13
      vertex 179.502 -31.5356 13
    endloop
  endfacet
  facet normal -0.142315 -0.989821 0
    outer loop
      vertex 179.502 -31.5356 7.99
      vertex 181.454 -31.8163 7.99
      vertex 179.502 -31.5356 13
    endloop
  endfacet
  facet normal 0.415415 -0.909632 0
    outer loop
      vertex 179.502 -31.5356 7.99
      vertex 179.502 -31.5356 13
      vertex 177.708 -32.3549 13
    endloop
  endfacet
  facet normal 0.415415 -0.909632 0
    outer loop
      vertex 177.708 -32.3549 7.99
      vertex 179.502 -31.5356 7.99
      vertex 177.708 -32.3549 13
    endloop
  endfacet
  facet normal 0.841254 -0.54064 0
    outer loop
      vertex 177.708 37.6451 7.99
      vertex 177.708 37.6451 13
      vertex 176.642 35.9861 13
    endloop
  endfacet
  facet normal 0.841254 -0.54064 0
    outer loop
      vertex 176.642 35.9861 7.99
      vertex 177.708 37.6451 7.99
      vertex 176.642 35.9861 13
    endloop
  endfacet
  facet normal 1 0 0
    outer loop
      vertex 176.642 35.9861 7.99
      vertex 176.642 35.9861 13
      vertex 176.642 34.0139 13
    endloop
  endfacet
  facet normal 1 0 0
    outer loop
      vertex 176.642 34.0139 7.99
      vertex 176.642 35.9861 7.99
      vertex 176.642 34.0139 13
    endloop
  endfacet
  facet normal 0.841254 0.54064 0
    outer loop
      vertex 176.642 34.0139 13
      vertex 177.708 32.3549 13
      vertex 177.708 32.3549 7.99
    endloop
  endfacet
  facet normal 0.841254 0.54064 0
    outer loop
      vertex 176.642 34.0139 7.99
      vertex 176.642 34.0139 13
      vertex 177.708 32.3549 7.99
    endloop
  endfacet
  facet normal 0.415415 0.909632 0
    outer loop
      vertex 179.502 31.5356 13
      vertex 179.502 31.5356 7.99
      vertex 177.708 32.3549 13
    endloop
  endfacet
  facet normal 0.415415 0.909632 0
    outer loop
      vertex 177.708 32.3549 13
      vertex 179.502 31.5356 7.99
      vertex 177.708 32.3549 7.99
    endloop
  endfacet
  facet normal -0.142315 0.989821 0
    outer loop
      vertex 181.454 31.8163 13
      vertex 181.454 31.8163 7.99
      vertex 179.502 31.5356 13
    endloop
  endfacet
  facet normal -0.142315 0.989821 0
    outer loop
      vertex 179.502 31.5356 13
      vertex 181.454 31.8163 7.99
      vertex 179.502 31.5356 7.99
    endloop
  endfacet
  facet normal -0.654861 0.755749 0
    outer loop
      vertex 182.944 33.1078 13
      vertex 182.944 33.1078 7.99
      vertex 181.454 31.8163 13
    endloop
  endfacet
  facet normal -0.654861 0.755749 0
    outer loop
      vertex 181.454 31.8163 13
      vertex 182.944 33.1078 7.99
      vertex 181.454 31.8163 7.99
    endloop
  endfacet
  facet normal -0.959493 0.281733 0
    outer loop
      vertex 183.5 35 13
      vertex 183.5 35 7.99
      vertex 182.944 33.1078 13
    endloop
  endfacet
  facet normal -0.959493 0.281733 0
    outer loop
      vertex 182.944 33.1078 13
      vertex 183.5 35 7.99
      vertex 182.944 33.1078 7.99
    endloop
  endfacet
  facet normal -0.959493 -0.281733 0
    outer loop
      vertex 183.5 35 13
      vertex 182.944 36.8922 13
      vertex 183.5 35 7.99
    endloop
  endfacet
  facet normal -0.959493 -0.281733 0
    outer loop
      vertex 183.5 35 7.99
      vertex 182.944 36.8922 13
      vertex 182.944 36.8922 7.99
    endloop
  endfacet
  facet normal -0.654861 -0.755749 0
    outer loop
      vertex 182.944 36.8922 7.99
      vertex 182.944 36.8922 13
      vertex 181.454 38.1837 13
    endloop
  endfacet
  facet normal -0.654861 -0.755749 0
    outer loop
      vertex 181.454 38.1837 7.99
      vertex 182.944 36.8922 7.99
      vertex 181.454 38.1837 13
    endloop
  endfacet
  facet normal -0.142315 -0.989821 0
    outer loop
      vertex 181.454 38.1837 7.99
      vertex 181.454 38.1837 13
      vertex 179.502 38.4644 13
    endloop
  endfacet
  facet normal -0.142315 -0.989821 0
    outer loop
      vertex 179.502 38.4644 7.99
      vertex 181.454 38.1837 7.99
      vertex 179.502 38.4644 13
    endloop
  endfacet
  facet normal 0.415415 -0.909632 0
    outer loop
      vertex 179.502 38.4644 7.99
      vertex 179.502 38.4644 13
      vertex 177.708 37.6451 13
    endloop
  endfacet
  facet normal 0.415415 -0.909632 0
    outer loop
      vertex 177.708 37.6451 7.99
      vertex 179.502 38.4644 7.99
      vertex 177.708 37.6451 13
    endloop
  endfacet
  facet normal 0 0 1
    outer loop
      vertex 87.708 -37.6451 7.99
      vertex 89.5019 -38.4644 7.99
      vertex 91.454 -38.1837 7.99
    endloop
  endfacet
  facet normal 0 0 1
    outer loop
      vertex 93.5 -35 7.99
      vertex 87.708 -37.6451 7.99
      vertex 92.9444 -36.8922 7.99
    endloop
  endfacet
  facet normal 0 0 1
    outer loop
      vertex 92.9444 -36.8922 7.99
      vertex 87.708 -37.6451 7.99
      vertex 91.454 -38.1837 7.99
    endloop
  endfacet
  facet normal 0 0 1
    outer loop
      vertex 92.9444 -33.1078 7.99
      vertex 87.708 -37.6451 7.99
      vertex 93.5 -35 7.99
    endloop
  endfacet
  facet normal 0 0 1
    outer loop
      vertex 91.454 -31.8163 7.99
      vertex 87.708 -37.6451 7.99
      vertex 92.9444 -33.1078 7.99
    endloop
  endfacet
  facet normal 0 0 1
    outer loop
      vertex 89.5019 -31.5356 7.99
      vertex 87.708 -37.6451 7.99
      vertex 91.454 -31.8163 7.99
    endloop
  endfacet
  facet normal 0 0 1
    outer loop
      vertex 87.708 -32.3549 7.99
      vertex 87.708 -37.6451 7.99
      vertex 89.5019 -31.5356 7.99
    endloop
  endfacet
  facet normal 0 0 1
    outer loop
      vertex 86.6418 -34.0139 7.99
      vertex 87.708 -37.6451 7.99
      vertex 87.708 -32.3549 7.99
    endloop
  endfacet
  facet normal 0 0 1
    outer loop
      vertex 86.6418 -35.9861 7.99
      vertex 87.708 -37.6451 7.99
      vertex 86.6418 -34.0139 7.99
    endloop
  endfacet
  facet normal 0 0 1
    outer loop
      vertex 87.708 32.3549 7.99
      vertex 89.5019 31.5356 7.99
      vertex 91.454 31.8163 7.99
    endloop
  endfacet
  facet normal 0 0 1
    outer loop
      vertex 93.5 35 7.99
      vertex 87.708 32.3549 7.99
      vertex 92.9444 33.1078 7.99
    endloop
  endfacet
  facet normal 0 0 1
    outer loop
      vertex 92.9444 33.1078 7.99
      vertex 87.708 32.3549 7.99
      vertex 91.454 31.8163 7.99
    endloop
  endfacet
  facet normal 0 0 1
    outer loop
      vertex 92.9444 36.8922 7.99
      vertex 87.708 32.3549 7.99
      vertex 93.5 35 7.99
    endloop
  endfacet
  facet normal 0 0 1
    outer loop
      vertex 91.454 38.1837 7.99
      vertex 87.708 32.3549 7.99
      vertex 92.9444 36.8922 7.99
    endloop
  endfacet
  facet normal 0 0 1
    outer loop
      vertex 89.5019 38.4644 7.99
      vertex 87.708 32.3549 7.99
      vertex 91.454 38.1837 7.99
    endloop
  endfacet
  facet normal 0 0 1
    outer loop
      vertex 87.708 37.6451 7.99
      vertex 87.708 32.3549 7.99
      vertex 89.5019 38.4644 7.99
    endloop
  endfacet
  facet normal 0 0 1
    outer loop
      vertex 86.6418 35.9861 7.99
      vertex 87.708 32.3549 7.99
      vertex 87.708 37.6451 7.99
    endloop
  endfacet
  facet normal 0 0 1
    outer loop
      vertex 86.6418 34.0139 7.99
      vertex 87.708 32.3549 7.99
      vertex 86.6418 35.9861 7.99
    endloop
  endfacet
  facet normal 0 0 1
    outer loop
      vertex 177.708 -37.6451 7.99
      vertex 179.502 -38.4644 7.99
      vertex 181.454 -38.1837 7.99
    endloop
  endfacet
  facet normal 0 0 1
    outer loop
      vertex 183.5 -35 7.99
      vertex 177.708 -37.6451 7.99
      vertex 182.944 -36.8922 7.99
    endloop
  endfacet
  facet normal 0 0 1
    outer loop
      vertex 182.944 -36.8922 7.99
      vertex 177.708 -37.6451 7.99
      vertex 181.454 -38.1837 7.99
    endloop
  endfacet
  facet normal 0 0 1
    outer loop
      vertex 182.944 -33.1078 7.99
      vertex 177.708 -37.6451 7.99
      vertex 183.5 -35 7.99
    endloop
  endfacet
  facet normal 0 0 1
    outer loop
      vertex 181.454 -31.8163 7.99
      vertex 177.708 -37.6451 7.99
      vertex 182.944 -33.1078 7.99
    endloop
  endfacet
  facet normal 0 0 1
    outer loop
      vertex 179.502 -31.5356 7.99
      vertex 177.708 -37.6451 7.99
      vertex 181.454 -31.8163 7.99
    endloop
  endfacet
  facet normal 0 0 1
    outer loop
      vertex 177.708 -32.3549 7.99
      vertex 177.708 -37.6451 7.99
      vertex 179.502 -31.5356 7.99
    endloop
  endfacet
  facet normal 0 0 1
    outer loop
      vertex 176.642 -34.0139 7.99
      vertex 177.708 -37.6451 7.99
      vertex 177.708 -32.3549 7.99
    endloop
  endfacet
  facet normal 0 0 1
    outer loop
      vertex 176.642 -35.9861 7.99
      vertex 177.708 -37.6451 7.99
      vertex 176.642 -34.0139 7.99
    endloop
  endfacet
  facet normal 0 0 1
    outer loop
      vertex 177.708 32.3549 7.99
      vertex 179.502 31.5356 7.99
      vertex 181.454 31.8163 7.99
    endloop
  endfacet
  facet normal 0 0 1
    outer loop
      vertex 183.5 35 7.99
      vertex 177.708 32.3549 7.99
      vertex 182.944 33.1078 7.99
    endloop
  endfacet
  facet normal 0 0 1
    outer loop
      vertex 182.944 33.1078 7.99
      vertex 177.708 32.3549 7.99
      vertex 181.454 31.8163 7.99
    endloop
  endfacet
  facet normal 0 0 1
    outer loop
      vertex 182.944 36.8922 7.99
      vertex 177.708 32.3549 7.99
      vertex 183.5 35 7.99
    endloop
  endfacet
  facet normal 0 0 1
    outer loop
      vertex 181.454 38.1837 7.99
      vertex 177.708 32.3549 7.99
      vertex 182.944 36.8922 7.99
    endloop
  endfacet
  facet normal 0 0 1
    outer loop
      vertex 179.502 38.4644 7.99
      vertex 177.708 32.3549 7.99
      vertex 181.454 38.1837 7.99
    endloop
  endfacet
  facet normal 0 0 1
    outer loop
      vertex 177.708 37.6451 7.99
      vertex 177.708 32.3549 7.99
      vertex 179.502 38.4644 7.99
    endloop
  endfacet
  facet normal 0 0 1
    outer loop
      vertex 176.642 35.9861 7.99
      vertex 177.708 32.3549 7.99
      vertex 177.708 37.6451 7.99
    endloop
  endfacet
  facet normal 0 0 1
    outer loop
      vertex 176.642 34.0139 7.99
      vertex 177.708 32.3549 7.99
      vertex 176.642 35.9861 7.99
    endloop
  endfacet
endsolid OpenSCAD_Model
